<svg width="121" height="120" viewBox="0 0 121 120" fill="none" xmlns="http://www.w3.org/2000/svg">
<g clip-path="url(#clip0)">
<path d="M52.4077 41.2047L79.0825 67.8795L83.3508 63.6113L56.676 36.9365C55.2312 38.3365 53.8077 39.76 52.4077 41.2047Z" fill="url(#paint0_linear)"/>
<path d="M36.9365 56.6762L63.6114 83.3511L67.8796 79.0828L41.2048 52.408C39.7601 53.808 38.3365 55.2315 36.9365 56.6762Z" fill="url(#paint1_linear)"/>
<path d="M40.7511 74.4353C35.3 75.3854 29.7522 77.3793 24.4031 80.251C22.8534 81.083 22.1231 83.0221 23.0174 83.9162L36.3713 97.2701C37.2654 98.1642 39.2045 97.4341 40.0365 95.8844C42.9083 90.5353 44.9024 84.9875 45.8523 79.5364C46.4892 76.0941 44.1937 73.7986 40.7511 74.4353Z" fill="url(#paint2_linear)"/>
<path d="M36.3714 97.269L32.2102 93.1078C33.1053 94.0029 35.0436 93.2725 35.8756 91.7219C35.881 91.712 35.8865 91.7019 35.8916 91.692C36.8234 89.9537 36.4898 87.8073 35.0952 86.4127L27.4185 78.736C29.3801 77.816 31.3615 77.0158 33.3481 76.3436C35.817 75.505 38.2928 74.8628 40.7502 74.4353C41.1095 74.3687 41.4589 74.3356 41.7952 74.3323C43.0514 74.3139 44.0994 74.7233 44.8316 75.4553C45.7568 76.3803 46.1693 77.8146 45.8516 79.5365C45.4241 81.9939 44.7834 84.4713 43.945 86.9403C43.2728 88.9268 42.4726 90.9085 41.5526 92.8699C41.0785 93.8798 40.5726 94.8847 40.0368 95.8831C39.2048 97.4339 37.2665 98.1643 36.3714 97.269Z" fill="url(#paint3_linear)"/>
<path d="M82.2155 44.2044C85.6023 44.2044 88.348 41.4588 88.348 38.072C88.348 34.6851 85.6023 31.9395 82.2155 31.9395C78.8286 31.9395 76.083 34.6851 76.083 38.072C76.083 41.4588 78.8286 44.2044 82.2155 44.2044Z" fill="url(#paint4_linear)"/>
<path d="M81.439 54.6923L49.8672 86.264C48.0446 88.0866 45.0898 88.0866 43.2672 86.264L34.0237 77.0205C32.2011 75.1979 32.2011 72.2431 34.0237 70.4205L65.5954 38.8487C69.9705 34.4737 77.0639 34.4737 81.439 38.8487C85.814 43.2238 85.814 50.3172 81.439 54.6923Z" fill="url(#paint5_linear)"/>
<path d="M81.5403 38.7471C80.3509 37.5577 78.9596 36.6941 77.4775 36.1516C78.7436 39.6092 78.2509 43.5652 75.997 46.6332L71.7794 42.4156C71.145 41.7812 70.1239 41.6713 69.4147 42.221C68.557 42.8859 68.4991 44.1266 69.2415 44.869L70.382 46.0094C72.1556 47.7831 72.1556 50.6586 70.382 52.4323L62.553 60.2612L58.2434 55.9515C57.609 55.3172 56.5878 55.2073 55.8787 55.757C55.021 56.4219 54.9631 57.6626 55.7055 58.405L56.846 59.5454C58.6196 61.3191 58.6196 64.1946 56.846 65.9682L49.017 73.7972L44.7074 69.4875C44.073 68.8532 43.0518 68.7433 42.3427 69.2929C41.485 69.9579 41.4271 71.1986 42.1695 71.9409L43.31 73.0814C45.0836 74.8551 45.0836 77.7306 43.31 79.5042C41.4874 81.3268 38.5325 81.3268 36.71 79.5042L43.3683 86.1626C45.1909 87.9852 48.1457 87.9852 49.9683 86.1626L81.5401 54.5908C85.9156 50.2155 85.9156 43.1221 81.5403 38.7471Z" fill="url(#paint6_linear)"/>
<path d="M118.065 36.1372C107.715 46.4878 91.6995 47.2544 82.2943 37.8494C72.8892 28.4445 73.656 12.4292 84.0066 2.07859C94.3572 -8.272 128.416 25.7866 118.065 36.1372Z" fill="url(#paint7_linear)"/>
<path d="M106.666 9.3165C114.045 17.4718 118.657 27.2231 113.904 31.976C104.328 41.5513 89.906 42.9233 80.353 35.6294C80.9436 36.4028 81.5897 37.1452 82.2942 37.8494C91.6991 47.2544 107.714 46.4878 118.065 36.1372C123.663 30.5393 116.271 18.0078 106.666 9.3165Z" fill="url(#paint8_linear)"/>
<path d="M118.052 36.1198C115.346 38.8259 111.838 37.6782 107.109 35.5309C102.041 33.2299 95.6913 29.6596 91.1948 24.681C89.0021 22.253 87.0565 19.6848 85.5294 17.1499C84.8553 16.0308 83.3088 12.8702 82.8807 11.597C81.5889 7.75534 81.7188 4.33581 83.9934 2.06122C94.3447 -8.28937 128.403 25.7692 118.052 36.1198Z" fill="url(#paint9_linear)"/>
<path d="M106.666 9.3165C114.045 17.4718 118.657 27.2231 113.904 31.976C109.151 36.7287 99.635 31.8824 91.4795 24.5031C92.8075 25.9706 93.9899 27.6219 95.4588 28.9478C99.7986 32.8647 112.582 41.6205 118.065 36.137C123.663 30.5393 116.272 18.0078 106.666 9.3165Z" fill="#15213D"/>
<path d="M117.217 84.0266L92.6803 59.4894C90.6159 57.4249 86.8822 57.799 84.3575 60.3238L60.3236 84.3576C57.7989 86.8823 57.4248 90.616 59.4893 92.6805L84.0264 117.218C86.0909 119.282 89.8246 118.908 92.3493 116.383L116.383 92.3494C118.908 89.8247 119.282 86.091 117.217 84.0266Z" fill="url(#paint10_linear)"/>
<path d="M118.602 83.8189L92.888 58.1045C90.7245 55.941 86.8115 56.333 84.1659 58.9789L58.9788 84.1659C56.3332 86.8116 55.941 90.7245 58.1045 92.888L83.8188 118.603C85.9824 120.766 89.8953 120.374 92.541 117.728L117.728 92.5412C120.374 89.8953 120.766 85.9826 118.602 83.8189ZM114.383 90.2483L105.916 98.7146C104.88 99.7513 103.352 99.9045 102.504 99.0567L93.0217 89.5746C92.1739 88.7269 92.3271 87.1991 93.3638 86.1622L101.83 77.6958C102.867 76.6591 104.395 76.5059 105.243 77.3537L114.725 86.8358C115.572 87.6838 115.42 89.2116 114.383 90.2483ZM89.8711 61.9821L99.3532 71.4643C100.201 72.312 100.048 73.8398 99.0111 74.8767L90.5447 83.3431C89.508 84.3798 87.9802 84.533 87.1322 83.6852L77.6501 74.2031C76.8024 73.3553 76.9555 71.8276 77.9922 70.7906L86.4586 62.3243C87.4955 61.2876 89.0233 61.1344 89.8711 61.9821ZM62.3242 86.4586L70.7906 77.9923C71.8273 76.9556 73.3551 76.8024 74.2031 77.6502L83.6852 87.1323C84.5329 87.98 84.3798 89.5078 83.3431 90.5447L74.8767 99.0111C73.84 100.048 72.3122 100.201 71.4642 99.3532L61.9821 89.8711C61.1344 89.0233 61.2875 87.4956 62.3242 86.4586ZM86.8358 114.725L77.3537 105.243C76.5059 104.395 76.6591 102.867 77.6958 101.83L86.1621 93.3638C87.1988 92.3271 88.7266 92.1739 89.5746 93.0217L99.0567 102.504C99.9045 103.352 99.7513 104.879 98.7146 105.916L90.2482 114.383C89.2115 115.42 87.6838 115.573 86.8358 114.725Z" fill="url(#paint11_linear)"/>
<path d="M118.602 83.8189L115.771 80.9871C117.934 83.1506 117.542 87.0636 114.896 89.7092L114.599 90.0061C114.532 90.089 114.46 90.1704 114.383 90.248L105.916 98.7144C105.838 98.7923 105.757 98.8633 105.674 98.9311L98.9313 105.674C98.8635 105.757 98.7922 105.838 98.7146 105.916L90.2482 114.382C90.1704 114.46 90.0892 114.531 90.0064 114.599L89.7094 114.896C87.0638 117.542 83.1508 117.934 80.9873 115.77L83.8191 118.602C85.9828 120.766 89.8955 120.374 92.5412 117.728L117.728 92.5412C120.374 89.8953 120.766 85.9826 118.602 83.8189Z" fill="url(#paint12_linear)"/>
<path d="M60.5105 27.3195L35.9733 2.78252C33.9088 0.718051 30.1752 1.09217 27.6505 3.61688L3.6166 27.6505C1.09189 30.1752 0.717777 33.9086 2.78225 35.9733L27.3194 60.5105C29.3839 62.575 33.1175 62.2009 35.6422 59.6762L59.6761 35.6423C62.2008 33.1178 62.5752 29.3842 60.5105 27.3195Z" fill="url(#paint13_linear)"/>
<path d="M61.8955 27.1121L36.1812 1.39772C34.0176 -0.766048 30.1047 -0.373812 27.459 2.27207L2.27198 27.4589C-0.373904 30.1048 -0.766139 34.0175 1.39763 36.1813L27.112 61.8956C29.2757 64.0591 33.1884 63.6671 35.8341 61.0213L61.0212 35.8342C63.667 33.1885 64.0593 29.2756 61.8955 27.1121ZM57.6757 33.5415L49.2094 42.0078C48.1727 43.0445 46.6449 43.1977 45.7969 42.35L36.3148 32.8678C35.467 32.0201 35.6202 30.4923 36.6569 29.4554L45.1233 20.989C46.16 19.9523 47.6877 19.7991 48.5357 20.6469L58.0179 30.129C58.8656 30.9768 58.7125 32.5045 57.6757 33.5415ZM33.1642 5.27536L42.6463 14.7575C43.4941 15.6052 43.3409 17.133 42.3042 18.17L33.8379 26.6363C32.8012 27.673 31.2734 27.8262 30.4254 26.9784L20.9435 17.4961C20.0957 16.6483 20.2489 15.1205 21.2856 14.0836L29.752 5.61725C30.7885 4.58054 32.3162 4.4276 33.1642 5.27536ZM5.61739 29.7518L14.0837 21.2855C15.1205 20.2488 16.6482 20.0956 17.4962 20.9434L26.9783 30.4255C27.8261 31.2733 27.6729 32.801 26.6362 33.838L18.1699 42.3043C17.1332 43.341 15.6054 43.4942 14.7574 42.6464L5.27527 33.1643C4.42751 32.3163 4.58068 30.7885 5.61739 29.7518ZM30.1289 58.018L20.6468 48.5358C19.799 47.6881 19.9522 46.1603 20.9889 45.1234L29.4553 36.657C30.492 35.6203 32.0197 35.4671 32.8677 36.3149L42.3499 45.797C43.1976 46.6448 43.0445 48.1725 42.0077 49.2095L33.5414 57.6758C32.5045 58.7125 30.9767 58.8657 30.1289 58.018Z" fill="url(#paint14_linear)"/>
<path d="M61.8953 27.1121L59.0636 24.2803C61.2271 26.4438 60.8351 30.3568 58.1892 33.0024L57.8923 33.2994C57.8245 33.3822 57.7532 33.4636 57.6756 33.5412L49.2092 42.0076C49.1313 42.0855 49.0502 42.1565 48.9673 42.2243L42.2243 48.9674C42.1565 49.0502 42.0852 49.1316 42.0076 49.2093L33.5412 57.6756C33.4633 57.7535 33.3822 57.8246 33.2993 57.8923L33.0024 58.1893C30.3567 60.8349 26.4438 61.2271 24.2803 59.0636L27.112 61.8954C29.2758 64.0591 33.1885 63.6669 35.8342 61.021L61.021 35.8342C63.6669 33.1885 64.0591 29.2756 61.8953 27.1121Z" fill="url(#paint15_linear)"/>
<rect x="109.218" y="8.46838" width="4.77375" height="24.3506" transform="rotate(45 109.218 8.46838)" fill="url(#paint16_linear)"/>
<path d="M114.868 12.4087C118.255 12.4087 121 9.66314 121 6.27627C121 2.8894 118.255 0.143799 114.868 0.143799C111.481 0.143799 108.735 2.8894 108.735 6.27627C108.735 9.66314 111.481 12.4087 114.868 12.4087Z" fill="#0E3876"/>
</g>
<defs>
<linearGradient id="paint0_linear" x1="51.6796" y1="52.408" x2="82.9952" y2="52.408" gradientUnits="userSpaceOnUse">
<stop stop-color="#1A2C52"/>
<stop offset="0.6075" stop-color="#0C3C81"/>
<stop offset="1" stop-color="#22253B"/>
</linearGradient>
<linearGradient id="paint1_linear" x1="36.2084" y1="67.8795" x2="67.5241" y2="67.8795" gradientUnits="userSpaceOnUse">
<stop stop-color="#1A2C52"/>
<stop offset="0.6075" stop-color="#0C3C81"/>
<stop offset="1" stop-color="#22253B"/>
</linearGradient>
<linearGradient id="paint2_linear" x1="21.5244" y1="85.9936" x2="48.1659" y2="85.9936" gradientUnits="userSpaceOnUse">
<stop stop-color="#DDCE39"/>
<stop offset="0.5213" stop-color="#DCD154"/>
<stop offset="1" stop-color="#B0A100"/>
</linearGradient>
<linearGradient id="paint3_linear" x1="44.1442" y1="83.5776" x2="26.5277" y2="79.3573" gradientUnits="userSpaceOnUse">
<stop stop-color="#B6A603"/>
<stop offset="1" stop-color="#C7B604" stop-opacity="0"/>
</linearGradient>
<linearGradient id="paint4_linear" x1="70.7319" y1="38.0722" x2="80.6395" y2="38.0722" gradientUnits="userSpaceOnUse">
<stop stop-color="#EAF6FF"/>
<stop offset="0.5213" stop-color="#D8ECFE"/>
<stop offset="1" stop-color="#B3DAFE"/>
</linearGradient>
<linearGradient id="paint5_linear" x1="48.8758" y1="49.1007" x2="72.6666" y2="72.8915" gradientUnits="userSpaceOnUse">
<stop stop-color="#EAF6FF"/>
<stop offset="0.5213" stop-color="#D8ECFE"/>
<stop offset="1" stop-color="#B3DAFE"/>
</linearGradient>
<linearGradient id="paint6_linear" x1="-43.8023" y1="51.81" x2="49.4998" y2="51.81" gradientUnits="userSpaceOnUse">
<stop stop-color="#EAF6FF"/>
<stop offset="0.5213" stop-color="#BEE0FF"/>
<stop offset="1" stop-color="#8EC9FF"/>
</linearGradient>
<linearGradient id="paint7_linear" x1="77.3881" y1="6.47091" x2="115.839" y2="44.9214" gradientUnits="userSpaceOnUse">
<stop stop-color="#EAF6FF"/>
<stop offset="0.5213" stop-color="#D8ECFE"/>
<stop offset="1" stop-color="#B3DAFE"/>
</linearGradient>
<linearGradient id="paint8_linear" x1="75.2252" y1="4.30852" x2="107.665" y2="36.7478" gradientUnits="userSpaceOnUse">
<stop stop-color="#EAF6FF"/>
<stop offset="0.5213" stop-color="#D8ECFE"/>
<stop offset="1" stop-color="#B3DAFE"/>
</linearGradient>
<linearGradient id="paint9_linear" x1="81.1661" y1="18.914" x2="119.552" y2="18.914" gradientUnits="userSpaceOnUse">
<stop stop-color="#1A2C52"/>
<stop offset="0.6075" stop-color="#0C3C81"/>
<stop offset="1" stop-color="#22253B"/>
</linearGradient>
<linearGradient id="paint10_linear" x1="56.7347" y1="88.3536" x2="117.857" y2="88.3536" gradientUnits="userSpaceOnUse">
<stop stop-color="#1A2C52"/>
<stop offset="0.6075" stop-color="#0C3C81"/>
<stop offset="1" stop-color="#22253B"/>
</linearGradient>
<linearGradient id="paint11_linear" x1="71.5919" y1="71.6136" x2="105.149" y2="105.171" gradientUnits="userSpaceOnUse">
<stop stop-color="#EAF6FF"/>
<stop offset="0.5213" stop-color="#D8ECFE"/>
<stop offset="1" stop-color="#B3DAFE"/>
</linearGradient>
<linearGradient id="paint12_linear" x1="55.5985" y1="55.6203" x2="98.7397" y2="98.7614" gradientUnits="userSpaceOnUse">
<stop stop-color="#D8ECFE"/>
<stop offset="0.5667" stop-color="#B3DAFE"/>
<stop offset="0.9955" stop-color="#8AC9FE"/>
</linearGradient>
<linearGradient id="paint13_linear" x1="0.027649" y1="31.6465" x2="61.1501" y2="31.6465" gradientUnits="userSpaceOnUse">
<stop stop-color="#1A2C52"/>
<stop offset="0.6075" stop-color="#0C3C81"/>
<stop offset="1" stop-color="#22253B"/>
</linearGradient>
<linearGradient id="paint14_linear" x1="14.8936" y1="14.9154" x2="48.4508" y2="48.4726" gradientUnits="userSpaceOnUse">
<stop stop-color="#EAF6FF"/>
<stop offset="0.5213" stop-color="#D8ECFE"/>
<stop offset="1" stop-color="#B3DAFE"/>
</linearGradient>
<linearGradient id="paint15_linear" x1="-1.09993" y1="-1.07796" x2="42.0411" y2="42.063" gradientUnits="userSpaceOnUse">
<stop stop-color="#D8ECFE"/>
<stop offset="0.5667" stop-color="#B3DAFE"/>
<stop offset="0.9955" stop-color="#8AC9FE"/>
</linearGradient>
<linearGradient id="paint16_linear" x1="108.992" y1="20.6437" x2="114.444" y2="20.6437" gradientUnits="userSpaceOnUse">
<stop stop-color="#DDCE39"/>
<stop offset="0.5213" stop-color="#DCD154"/>
<stop offset="1" stop-color="#B0A100"/>
</linearGradient>
<clipPath id="clip0">
<rect width="121" height="120" fill="white"/>
</clipPath>
</defs>
</svg>
