<svg width="124" height="72" viewBox="0 0 124 72" fill="none" xmlns="http://www.w3.org/2000/svg">
<path d="M88 72C68.2 72 52 55.8 52 36C52 16.2 68.2 0 88 0C107.8 0 124 16.2 124 36C124 55.8 107.8 72 88 72Z" fill="#1E1E1E"/>
<path opacity="0.4" d="M108.936 43.0447C110.736 46.3447 109.536 50.5447 106.536 52.3447C103.236 54.1447 99.0359 52.9447 97.2359 49.9447L82.8359 25.3447C81.0359 22.0447 82.2359 17.8447 85.5359 16.0447C88.8359 13.9447 92.7359 15.1447 94.8359 18.4447L108.936 43.0447Z" fill="#4BDB4B"/>
<path opacity="0.65" d="M80.6454 49.9447C78.8454 53.2447 74.6454 54.4447 71.3454 52.3447C68.0454 50.5447 66.8454 46.3447 68.9454 43.0447L83.0454 18.4447C84.8454 15.1447 89.0454 13.9447 92.3454 16.0447C95.6454 17.8447 96.8454 22.0447 94.7454 25.3447L80.6454 49.9447Z" fill="#4BDB4B"/>
<path d="M95.6499 21.9C95.6499 25.8 88.7499 35.4 88.7499 35.4C88.7499 35.4 82.1499 25.8 82.1499 21.9C82.1499 18 85.1499 15 89.0499 15C92.9499 15 95.6499 18.3 95.6499 21.9Z" fill="#5FCE5F"/>
<path d="M31.2663 55.3116C33.1232 62.1777 39.7841 67.419 43.1416 67.1869C43.2604 67.1869 55.9021 64.8226 62.8222 53.2604C68.22 44.2622 66.374 35.577 59.0437 35.3881C56.4095 35.577 27.7361 42.2056 31.2555 55.2954" fill="#2845AE"/>
<path d="M58.3581 11.195C53.7472 7.27027 48.1215 4.72791 42.1289 3.86077C36.1364 2.99364 30.0207 3.83701 24.4865 6.29373C23.7866 6.58875 23.1053 6.92583 22.4461 7.30313C21.9981 7.54064 21.5447 7.78354 21.1074 8.04264L21.2154 8.07502C19.9196 8.95766 18.7734 10.0419 17.8201 11.2867C8.59521 23.4643 39.5195 32.3222 56.0532 32.3546C63.6534 37.8118 65.8125 16.9815 58.3581 11.195Z" fill="#2845AE"/>
<path d="M26.349 11.4432C22.0901 17.8288 7.95306 22.3253 5.62659 21.6235V21.5965C5.71835 21.4022 5.81551 21.2133 5.91807 21.0244C6.72056 19.4752 7.6409 17.99 8.67098 16.5819C9.6959 15.1815 10.8274 13.8623 12.0554 12.6361C13.2808 11.4097 14.5962 10.2766 15.9905 9.24625C16.8595 8.6093 17.761 8.01014 18.6894 7.45956C20.1248 6.67099 21.7317 6.24655 23.3693 6.22345C29.674 6.3422 26.3813 11.4 26.349 11.454" fill="#5493F7"/>
<path d="M22.867 56.5638C23.1693 58.5718 22.867 66.4959 22.446 67.1652C22.0951 67.1652 21.3664 67.23 19.2073 66.0317C18.0882 65.3946 17.0069 64.6936 15.9686 63.9319C11.7464 60.8389 8.29866 56.8091 5.89618 52.1592C4.25678 49 3.13073 45.6 2.5603 42.0868C1.97013 38.4472 1.97013 34.7363 2.5603 31.0967C2.84816 29.327 3.27778 27.5833 3.84499 25.8824C3.95835 25.5423 4.0771 25.2023 4.20125 24.8676C6.64648 28.1063 9.46956 31.0536 11.877 34.3355C14.1603 37.4608 17.3073 42.551 17.9496 43.6414C21.9278 50.3941 22.5594 54.5612 22.867 56.5638Z" fill="#5493F7"/>
<path d="M69.8772 36.5918C69.8822 40.8507 69.0818 45.0722 67.5184 49.0338C63.5293 53.3521 36.621 42.7669 36.3565 42.6482C32.6806 41.0396 21.48 36.133 20.4706 28.4248C19.0186 17.3376 41.5223 9.60789 51.4004 9.31641C52.5879 9.31641 56.1937 9.37039 58.2988 11.0815C61.9412 14.2583 64.86 18.1793 66.8583 22.58C68.8565 26.9806 69.8878 31.7587 69.8826 36.5918" fill="#5493F7"/>
<path d="M51.6646 66.6417C48.7281 68.0073 45.5002 67.0141 46.3369 64.1533C47.9562 58.669 61.9907 53.0499 65.1214 52.7422C65.5047 52.7044 65.6612 52.9635 65.4939 53.282C62.2566 58.9702 57.4575 63.6119 51.6646 66.6579" fill="#5493F7"/>
</svg>
