<svg width="168" height="80" viewBox="0 0 168 80" fill="none" xmlns="http://www.w3.org/2000/svg">
<g filter="url(#filter0_dd)">
<path fill-rule="evenodd" clip-rule="evenodd" d="M17.1825 6.30812L4.05399 33.9254C3.95145 34.1362 3.99788 34.3894 4.16854 34.55L39.6256 68.5766C39.8349 68.7776 40.1651 68.7776 40.3744 68.5766L75.8315 34.5521C76.0021 34.3915 76.0486 34.1384 75.946 33.9275L62.8175 6.31024C62.7309 6.12081 62.5418 6.00004 62.3338 6.00004H17.6704C17.4614 5.99748 17.2703 6.11811 17.1825 6.30812Z" fill="#50AF95"/>
<path fill-rule="evenodd" clip-rule="evenodd" d="M44.5501 36.4659C44.296 36.485 42.9829 36.5639 40.0539 36.5639C37.7242 36.5639 36.0702 36.4936 35.4899 36.4659C26.4868 36.0674 19.7668 34.4904 19.7668 32.6023C19.7668 30.7143 26.4868 29.1394 35.4899 28.7346V34.8953C36.0786 34.9379 37.7645 35.0381 40.0941 35.0381C42.8897 35.0381 44.2896 34.9209 44.5416 34.8974V28.7388C53.5256 29.1416 60.2308 30.7185 60.2308 32.6023C60.2308 34.4861 53.5278 36.0631 44.5416 36.4637L44.5501 36.4659ZM44.5501 28.1016V22.5887H57.0879V14.1819H22.9521V22.5887H35.4877V28.0995C25.2987 28.5705 17.6362 30.6013 17.6362 33.0349C17.6362 35.4685 25.2987 37.4973 35.4877 37.9704V55.6364H44.548V37.964C54.7138 37.493 62.3635 35.4643 62.3635 33.0328C62.3635 30.6013 54.7201 28.5726 44.548 28.0995L44.5501 28.1016Z" fill="white"/>
<path d="M127.999 3L136.177 11.3757L115.583 31.97L107.404 23.7914L127.999 3Z" fill="#F0B90B" stroke="#F0B90B"/>
<path d="M140.414 15.416L148.593 23.7917L115.583 56.8018L107.404 48.6232L140.414 15.416Z" fill="#F0B90B" stroke="#F0B90B"/>
<path d="M103.167 27.8314L111.346 36.2071L103.167 44.3857L94.9884 36.2071L103.167 27.8314Z" fill="#F0B90B" stroke="#F0B90B"/>
<path d="M152.83 27.8314L161.009 36.2071L127.999 69.2172L119.82 61.0386L152.83 27.8314Z" fill="#F0B90B" stroke="#F0B90B"/>
<path d="M84 72C103.95 72 120 55.9501 120 36C120 16.0499 103.95 0 84 0C64.0499 0 48 16.0499 48 36C48 55.9501 64.0499 72 84 72Z" fill="#2775CA"/>
<path d="M93.9 41.7C93.9 36.4501 90.75 34.6501 84.4501 33.9002C79.9501 33.3001 79.0501 32.1002 79.0501 30C79.0501 27.8997 80.5502 26.5501 83.5501 26.5501C86.2501 26.5501 87.7502 27.4501 88.5 29.7001C88.6502 30.1501 89.1002 30.45 89.5501 30.45H91.9499C92.55 30.45 93 30 93 29.4002V29.2501C92.3999 25.9499 89.6999 23.4001 86.2501 23.1002V19.5002C86.2501 18.9 85.8001 18.45 85.0502 18.2999H82.8002C82.2001 18.2999 81.7501 18.7499 81.6 19.5002V22.9501C77.1 23.5502 74.2503 26.5501 74.2503 30.3002C74.2503 35.2502 77.2501 37.2 83.5501 37.9502C87.7502 38.7001 89.1002 39.6001 89.1002 42.0002C89.1002 44.4004 86.9999 46.0502 84.1502 46.0502C80.25 46.0502 78.9 44.4 78.45 42.15C78.3003 41.5502 77.8503 41.25 77.4003 41.25H74.85C74.2503 41.25 73.8003 41.7 73.8003 42.3001V42.4502C74.4 46.2 76.8001 48.9 81.7501 49.6503V53.2503C81.7501 53.85 82.2001 54.3 82.95 54.4501H85.1999C85.8001 54.4501 86.2501 54.0001 86.4002 53.2503V49.6503C90.9001 48.9 93.9 45.75 93.9 41.7Z" fill="white"/>
<path d="M76.3501 57.4501C64.6501 53.2503 58.65 40.2003 63.0002 28.65C65.2502 22.3499 70.2002 17.55 76.3501 15.3C76.9502 15.0001 77.2501 14.5501 77.2501 13.7999V11.7C77.2501 11.0999 76.9502 10.6499 76.3501 10.5001C76.2 10.5001 75.9001 10.5001 75.75 10.6499C61.5001 15.1499 53.7 30.3002 58.2 44.5502C60.9 52.9501 67.3501 59.4003 75.75 62.1003C76.3501 62.4002 76.9502 62.1003 77.1 61.5002C77.2501 61.3504 77.2501 61.2003 77.2501 60.9004V58.8001C77.2501 58.3501 76.8001 57.7504 76.3501 57.4501ZM92.2502 10.6499C91.6501 10.35 91.05 10.6499 90.9002 11.25C90.7501 11.4001 90.7501 11.5499 90.7501 11.8501V13.95C90.7501 14.5501 91.2001 15.1499 91.6501 15.4501C103.35 19.6499 109.35 32.7 105 44.2503C102.75 50.5503 97.8 55.3502 91.6501 57.6003C91.05 57.9001 90.7501 58.3501 90.7501 59.1004V61.2003C90.7501 61.8004 91.05 62.2504 91.6501 62.4002C91.8002 62.4002 92.1001 62.4002 92.2502 62.2504C106.5 57.7504 114.3 42.6001 109.8 28.3501C107.1 19.8001 100.5 13.3499 92.2502 10.6499Z" fill="white"/>
</g>
<defs>
<filter id="filter0_dd" x="0" y="0" width="168" height="80" filterUnits="userSpaceOnUse" color-interpolation-filters="sRGB">
<feFlood flood-opacity="0" result="BackgroundImageFix"/>
<feColorMatrix in="SourceAlpha" type="matrix" values="0 0 0 0 0 0 0 0 0 0 0 0 0 0 0 0 0 0 127 0"/>
<feOffset dy="4"/>
<feGaussianBlur stdDeviation="2"/>
<feColorMatrix type="matrix" values="0 0 0 0 0 0 0 0 0 0 0 0 0 0 0 0 0 0 0.25 0"/>
<feBlend mode="normal" in2="BackgroundImageFix" result="effect1_dropShadow"/>
<feColorMatrix in="SourceAlpha" type="matrix" values="0 0 0 0 0 0 0 0 0 0 0 0 0 0 0 0 0 0 127 0"/>
<feOffset dy="4"/>
<feGaussianBlur stdDeviation="2"/>
<feColorMatrix type="matrix" values="0 0 0 0 0 0 0 0 0 0 0 0 0 0 0 0 0 0 0.25 0"/>
<feBlend mode="normal" in2="effect1_dropShadow" result="effect2_dropShadow"/>
<feBlend mode="normal" in="SourceGraphic" in2="effect2_dropShadow" result="shape"/>
</filter>
</defs>
</svg>
