<svg width="124" height="72" viewBox="0 0 124 72" fill="none" xmlns="http://www.w3.org/2000/svg">
<path d="M83.2663 55.3117C85.1232 62.1778 91.7841 67.4191 95.1416 67.187C95.2604 67.187 107.902 64.8227 114.822 53.2605C120.22 44.2623 118.374 35.5771 111.044 35.3882C108.41 35.5771 79.7361 42.2057 83.2555 55.2955" fill="#2845AE"/>
<path d="M110.358 11.1949C105.747 7.27021 100.122 4.72784 94.1289 3.86071C88.1364 2.99358 82.0207 3.83695 76.4865 6.29367C75.7866 6.58869 75.1053 6.92577 74.4461 7.30307C73.9981 7.54057 73.5447 7.78348 73.1074 8.04257L73.2154 8.07496C71.9196 8.9576 70.7734 10.0419 69.8201 11.2867C60.5952 23.4643 91.5195 32.3221 108.053 32.3545C115.653 37.8118 117.812 16.9814 110.358 11.1949Z" fill="#2845AE"/>
<path d="M78.349 11.4431C74.0901 17.8288 59.9531 22.3252 57.6266 21.6235V21.5965C57.7184 21.4022 57.8155 21.2132 57.9181 21.0243C58.7206 19.4752 59.6409 17.99 60.671 16.5819C61.6959 15.1815 62.8274 13.8623 64.0554 12.636C65.2808 11.4096 66.5962 10.2765 67.9905 9.24619C68.8595 8.60924 69.761 8.01008 70.6894 7.4595C72.1248 6.67093 73.7317 6.24649 75.3693 6.22339C81.674 6.34214 78.3813 11.3999 78.349 11.4539" fill="#5493F7"/>
<path d="M74.867 56.5639C75.1693 58.5719 74.867 66.496 74.446 67.1653C74.0951 67.1653 73.3664 67.2301 71.2073 66.0317C70.0882 65.3947 69.0069 64.6936 67.9686 63.932C63.7464 60.8389 60.2987 56.8092 57.8962 52.1592C56.2568 49.0001 55.1307 45.6001 54.5603 42.0868C53.9701 38.4473 53.9701 34.7364 54.5603 31.0968C54.8482 29.3271 55.2778 27.5834 55.845 25.8825C55.9583 25.5424 56.0771 25.2023 56.2013 24.8677C58.6465 28.1064 61.4696 31.0536 63.877 34.3355C66.1603 37.4609 69.3073 42.5511 69.9496 43.6414C73.9278 50.3941 74.5594 54.5613 74.867 56.5639Z" fill="#5493F7"/>
<path d="M121.877 36.5918C121.882 40.8507 121.082 45.0722 119.518 49.0338C115.529 53.3521 88.621 42.7669 88.3565 42.6482C84.6806 41.0396 73.48 36.133 72.4706 28.4248C71.0186 17.3376 93.5223 9.60789 103.4 9.31641C104.588 9.31641 108.194 9.37039 110.299 11.0815C113.941 14.2583 116.86 18.1793 118.858 22.58C120.857 26.9806 121.888 31.7587 121.883 36.5918" fill="#5493F7"/>
<path d="M103.665 66.6417C100.728 68.0073 97.5002 67.0141 98.3369 64.1533C99.9562 58.669 113.991 53.0499 117.121 52.7422C117.505 52.7044 117.661 52.9635 117.494 53.282C114.257 58.9702 109.458 63.6119 103.665 66.6579" fill="#5493F7"/>
<path d="M36 72C16.2 72 0 55.8 0 36C0 16.2 16.2 0 36 0C55.8 0 72 16.2 72 36C72 55.8 55.8 72 36 72Z" fill="#1E1E1E"/>
<path opacity="0.4" d="M56.9359 43.0447C58.7359 46.3447 57.5359 50.5447 54.5359 52.3447C51.2359 54.1447 47.0359 52.9447 45.2359 49.9447L30.8359 25.3447C29.0359 22.0447 30.2359 17.8447 33.5359 16.0447C36.8359 13.9447 40.7359 15.1447 42.8359 18.4447L56.9359 43.0447Z" fill="#4BDB4B"/>
<path opacity="0.65" d="M28.6454 49.9447C26.8454 53.2447 22.6454 54.4447 19.3454 52.3447C16.0454 50.5447 14.8454 46.3447 16.9454 43.0447L31.0454 18.4447C32.8454 15.1447 37.0454 13.9447 40.3454 16.0447C43.6454 17.8447 44.8454 22.0447 42.7454 25.3447L28.6454 49.9447Z" fill="#4BDB4B"/>
<path d="M43.6499 21.9C43.6499 25.8 36.7499 35.4 36.7499 35.4C36.7499 35.4 30.1499 25.8 30.1499 21.9C30.1499 18 33.1499 15 37.0499 15C40.9499 15 43.6499 18.3 43.6499 21.9Z" fill="#5FCE5F"/>
</svg>
