<svg width="72" height="72" viewBox="0 0 72 72" fill="none" xmlns="http://www.w3.org/2000/svg">
<path d="M71.9997 36C71.9997 41.0062 70.9774 45.772 69.131 50.1033C67.5282 53.8646 64.8138 52.0477 62.0965 55.0222C60.9899 56.2337 60.291 62.6185 59.0299 63.6694C57.7854 64.7072 56.4705 65.662 55.091 66.5255C53.8403 67.3096 51.9406 65.3366 50.5927 65.9649C48.6169 66.886 47.1408 70.3155 44.9899 70.868C43.7032 71.1984 42.3884 71.46 41.0496 71.6484C39.4001 71.8805 37.714 69.2384 35.9998 69.2384C34.2855 69.2384 32.5994 71.8805 30.9499 71.6484C29.6112 71.46 28.2963 71.1984 27.0096 70.868C25.3073 70.4306 23.6536 66.7292 22.0583 66.0584C20.2628 65.3034 18.5416 67.5494 16.9085 66.5255C15.529 65.662 14.2141 64.7072 12.9696 63.6694C10.8321 61.8889 10.6492 55.2831 8.97319 53.0582C7.25644 50.7793 4.0592 52.8715 2.91774 50.2172C2.10915 48.3398 1.45524 46.3795 0.974307 44.3531C0.337276 41.6728 4.15651 38.8758 4.15651 36C4.15651 35.3995 0.0138388 34.8019 0.04337 34.2084C0.97712 15.1594 16.7187 0 35.9998 0C47.2694 0 57.3298 5.17922 63.9307 13.2863C66.0429 15.8808 67.8007 18.7748 69.131 21.8967C70.9774 26.228 71.9997 30.9937 71.9997 36Z" fill="url(#paint0_linear)"/>
<path d="M12.9698 50.774V63.6694C8.64281 60.0651 5.17359 55.4625 2.91797 50.2172C3.18094 48.697 4.50562 47.5397 6.10172 47.5397H9.73547C11.5214 47.5397 12.9698 48.9881 12.9698 50.774Z" fill="url(#paint1_linear)"/>
<path d="M27.0097 47.7598V70.8681C23.3914 69.9385 19.9925 68.4591 16.9086 66.5256V47.7598C16.9086 45.9738 18.357 44.5254 20.1429 44.5254H23.7767C25.5612 44.5254 27.0097 45.9738 27.0097 47.7598Z" fill="url(#paint2_linear)"/>
<path d="M41.05 39.694V71.6484C39.4005 71.8804 37.7144 72 36.0002 72C34.2859 72 32.5998 71.8804 30.9503 71.6484V39.694C30.9503 37.9081 32.3973 36.4611 34.1833 36.4611H37.817C39.603 36.4611 41.05 37.9081 41.05 39.694Z" fill="url(#paint3_linear)"/>
<path d="M55.0911 28.7084V66.5255C52.0072 68.4591 48.6083 69.9384 44.99 70.868V28.7084C44.99 26.9225 46.4384 25.4755 48.223 25.4755H51.8567C53.6426 25.4755 55.0911 26.9225 55.0911 28.7084Z" fill="url(#paint4_linear)"/>
<path d="M69.1312 10.6936V50.1033C66.8756 55.3964 63.3881 60.0384 59.0302 63.6694V10.6936C59.0302 8.81204 60.5559 7.28625 62.4375 7.28625H65.7239C67.6055 7.28625 69.1312 8.81204 69.1312 10.6936Z" fill="url(#paint5_linear)"/>
<path d="M47.4961 10.9013L42.158 21.7055C41.1863 23.6701 38.4525 23.8473 37.2361 22.0233L36.3783 20.7366L0.974531 44.3532C0.3375 41.6729 0 38.8759 0 36.0001C0 35.3996 0.0140625 34.8019 0.0435937 34.2085L31.4086 13.2863L30.5494 11.9982C29.333 10.1757 30.5466 7.71898 32.7333 7.57835L44.7595 6.79929C46.9463 6.65726 48.4664 8.93679 47.4961 10.9013Z" fill="url(#paint6_linear)"/>
<path d="M47.6691 8.81441C47.1909 8.51207 46.6116 8.34894 45.9745 8.38972L33.9483 9.16879C31.7616 9.30941 30.548 11.7661 31.7644 13.5886L32.6236 14.8768L0.0028125 36.4219C0.00140625 36.2813 0 36.1407 0 36C0 35.3996 0.0140625 34.8019 0.0435937 34.2085L31.4086 13.2863L30.5494 11.9982C29.333 10.1757 30.5466 7.71894 32.7333 7.57832L44.7595 6.79925C46.17 6.70785 47.3034 7.62472 47.6691 8.81441Z" fill="url(#paint7_linear)"/>
<defs>
<linearGradient id="paint0_linear" x1="14.9998" y1="7" x2="42.4998" y2="72" gradientUnits="userSpaceOnUse">
<stop stop-color="#1A2C52"/>
<stop offset="0.451244" stop-color="#0C3C81"/>
<stop offset="1" stop-color="#1A2C52"/>
</linearGradient>
<linearGradient id="paint1_linear" x1="7.86347" y1="47.6008" x2="7.86347" y2="64.05" gradientUnits="userSpaceOnUse">
<stop stop-color="#DDCE39"/>
<stop offset="1" stop-color="#B0A100"/>
</linearGradient>
<linearGradient id="paint2_linear" x1="21.8783" y1="44.6253" x2="21.8783" y2="71.4897" gradientUnits="userSpaceOnUse">
<stop stop-color="#DDCE39"/>
<stop offset="1" stop-color="#B0A100"/>
</linearGradient>
<linearGradient id="paint3_linear" x1="35.9193" y1="36.5958" x2="35.9193" y2="72.8387" gradientUnits="userSpaceOnUse">
<stop stop-color="#DDCE39"/>
<stop offset="1" stop-color="#B0A100"/>
</linearGradient>
<linearGradient id="paint4_linear" x1="49.9597" y1="25.6475" x2="49.9597" y2="71.9392" gradientUnits="userSpaceOnUse">
<stop stop-color="#DDCE39"/>
<stop offset="1" stop-color="#B0A100"/>
</linearGradient>
<linearGradient id="paint5_linear" x1="63.9999" y1="7.5" x2="63.9999" y2="65" gradientUnits="userSpaceOnUse">
<stop stop-color="#DDCE39"/>
<stop offset="1" stop-color="#B0A100"/>
</linearGradient>
<linearGradient id="paint6_linear" x1="42.5" y1="12" x2="-3.20876e-07" y2="40" gradientUnits="userSpaceOnUse">
<stop stop-color="#04FB97"/>
<stop offset="0.593" stop-color="#05DD86"/>
<stop offset="1" stop-color="#00BF72"/>
</linearGradient>
<linearGradient id="paint7_linear" x1="43" y1="7" x2="-1.67378e-06" y2="40.5" gradientUnits="userSpaceOnUse">
<stop stop-color="#04DB85"/>
<stop offset="1" stop-color="#06AB69"/>
</linearGradient>
</defs>
</svg>
