<svg width="124" height="72" viewBox="0 0 124 72" fill="none" xmlns="http://www.w3.org/2000/svg">
  <path d="M36 72C55.8823 72 72 55.8823 72 36C72 30.0535 70.5582 24.4437 68.0052 19.5012C67.8413 19.184 67.3693 19.2322 67.2426 19.566C65.5955 23.906 61.4304 26.9433 56.7815 27.1845C56.4933 27.1994 56.2985 27.4966 56.4066 27.7642C57.4342 30.3081 58 33.088 58 36C58 48.1503 48.1503 58 36 58C33.2407 58 30.6 57.492 28.1664 56.5645C27.8967 56.4616 27.6033 56.6625 27.5941 56.9511C27.4469 61.6027 24.4857 65.8273 20.1809 67.559C19.8497 67.6923 19.8108 68.1652 20.1311 68.3228C24.9183 70.6775 30.3047 72 36 72Z" fill="#00BF72"/>
  <path d="M43.8336 15.4355C44.1034 15.5384 44.3968 15.3375 44.4059 15.0489C44.5531 10.3973 47.5143 6.17268 51.8191 4.44098C52.1503 4.30773 52.1892 3.83483 51.8689 3.67725C47.0817 1.32254 41.6953 0 36 0C16.1178 0 0 16.1178 0 36C0 41.9465 1.44177 47.5563 3.99482 52.4988C4.15868 52.816 4.63073 52.7678 4.75742 52.434C6.40454 48.094 10.5696 45.0567 15.2185 44.8155C15.5067 44.8006 15.7015 44.5034 15.5934 44.2358C14.5658 41.6919 14 38.912 14 36C14 23.8497 23.8497 14 36 14C38.7593 14 41.4 14.508 43.8336 15.4355Z" fill="#00BF72"/>
  <path d="M52 36C52 44.8366 44.8366 52 36 52C27.1634 52 20 44.8366 20 36C20 27.1634 27.1634 20 36 20C44.8366 20 52 27.1634 52 36Z" fill="#00BF72"/>
  <path d="M22.8 56.6C22.8 60.466 19.666 63.6 15.8 63.6C11.934 63.6 8.8 60.466 8.8 56.6C8.8 52.734 11.934 49.6 15.8 49.6C19.666 49.6 22.8 52.734 22.8 56.6Z" fill="#00BF72"/>
  <path d="M56.2 22.4C60.066 22.4 63.2 19.266 63.2 15.4C63.2 11.534 60.066 8.4 56.2 8.4C52.334 8.4 49.2 11.534 49.2 15.4C49.2 19.266 52.334 22.4 56.2 22.4Z" fill="#00BF72"/>
  <path d="M88 72C68.2 72 52 55.8 52 36C52 16.2 68.2 0 88 0C107.8 0 124 16.2 124 36C124 55.8 107.8 72 88 72Z" fill="#1E1E1E"/>
  <path opacity="0.4" d="M108.936 43.0447C110.736 46.3447 109.536 50.5447 106.536 52.3447C103.236 54.1447 99.0361 52.9447 97.2361 49.9447L82.8361 25.3447C81.0361 22.0447 82.2361 17.8447 85.5361 16.0447C88.8361 13.9447 92.7361 15.1447 94.8361 18.4447L108.936 43.0447Z" fill="#4BDB4B"/>
  <path opacity="0.65" d="M80.6451 49.9447C78.8451 53.2447 74.6451 54.4447 71.3451 52.3447C68.0451 50.5447 66.8451 46.3447 68.9451 43.0447L83.0451 18.4447C84.8451 15.1447 89.0451 13.9447 92.3451 16.0447C95.6451 17.8447 96.8451 22.0447 94.7451 25.3447L80.6451 49.9447Z" fill="#4BDB4B"/>
  <path d="M95.6499 21.9C95.6499 25.8 88.7499 35.4 88.7499 35.4C88.7499 35.4 82.1499 25.8 82.1499 21.9C82.1499 18 85.1499 15 89.0499 15C92.9499 15 95.6499 18.3 95.6499 21.9Z" fill="#5FCE5F"/>
</svg>
