<svg width="120" height="120" viewBox="0 0 120 120" fill="none" xmlns="http://www.w3.org/2000/svg">
<ellipse cx="58.88" cy="61.8877" rx="57.3244" ry="57.3243" fill="url(#paint0_linear)"/>
<path d="M53.8589 39.8424C58.4732 39.8424 62.2139 36.1122 62.2139 31.5108C62.2139 26.9094 58.4732 23.1792 53.8589 23.1792C49.2446 23.1792 45.5039 26.9094 45.5039 31.5108C45.5039 36.1122 49.2446 39.8424 53.8589 39.8424Z" fill="url(#paint1_linear)"/>
<path d="M68.6442 102.993C72.1937 102.993 75.0712 100.124 75.0712 96.584C75.0712 93.0444 72.1937 90.175 68.6442 90.175C65.0947 90.175 62.2173 93.0444 62.2173 96.584C62.2173 100.124 65.0947 102.993 68.6442 102.993Z" fill="url(#paint2_linear)"/>
<path d="M23.9533 70.8017C31.2269 70.8017 37.1234 64.9218 37.1234 57.6685C37.1234 50.4152 31.2269 44.5353 23.9533 44.5353C16.6796 44.5353 10.7832 50.4152 10.7832 57.6685C10.7832 64.9218 16.6796 70.8017 23.9533 70.8017Z" fill="url(#paint3_linear)"/>
<path d="M59.2859 4.56335C57.7612 4.56335 56.2507 4.62341 54.7559 4.73899C67.9214 5.75806 79.8461 11.183 89.0539 19.5347C89.9979 20.391 89.3715 21.9428 88.0954 21.9399C88.0818 21.9399 88.0684 21.9399 88.0548 21.9399C78.3302 21.9399 70.447 29.8012 70.447 39.4984C70.447 48.3422 77.0047 55.6556 85.5349 56.8752C84.1111 58.4408 83.2762 60.5485 83.3792 62.8512C83.5723 67.174 87.1427 70.6741 91.4799 70.7981C96.2065 70.9333 100.081 67.1528 100.081 62.4699C100.081 60.9207 99.6562 59.4707 98.9173 58.2286C97.8168 56.3787 98.1507 54.0406 99.7611 52.6099C99.8967 52.4896 100.03 52.367 100.162 52.2426C102.764 49.7841 107.062 51.3832 107.507 54.93C107.803 57.289 107.956 59.6924 107.956 62.1313C107.956 63.0355 109.009 76.1203 100.081 91.1869C83.9568 118.397 59.3215 119.183 59.3215 119.183C59.3215 119.183 83.9789 120.196 101.568 100.632C119.158 81.0675 117.016 64.1913 117.016 62.1313C117.016 30.3376 91.1693 4.56335 59.2859 4.56335Z" fill="url(#paint4_linear)"/>
<defs>
<linearGradient id="paint0_linear" x1="-3.87464" y1="61.8878" x2="127.053" y2="61.8878" gradientUnits="userSpaceOnUse">
<stop stop-color="#DDCE39"/>
<stop offset="0.5213" stop-color="#DCD154"/>
<stop offset="1" stop-color="#B0A100"/>
</linearGradient>
<linearGradient id="paint1_linear" x1="45.007" y1="31.7211" x2="58.6465" y2="36.1618" gradientUnits="userSpaceOnUse">
<stop stop-color="#AC9E06"/>
<stop offset="1" stop-color="#AC9E06" stop-opacity="0"/>
</linearGradient>
<linearGradient id="paint2_linear" x1="61.8351" y1="96.7458" x2="72.327" y2="100.162" gradientUnits="userSpaceOnUse">
<stop stop-color="#AC9E06"/>
<stop offset="1" stop-color="#AC9E06" stop-opacity="0"/>
</linearGradient>
<linearGradient id="paint3_linear" x1="10" y1="58" x2="31.5" y2="65" gradientUnits="userSpaceOnUse">
<stop stop-color="#AC9E06"/>
<stop offset="1" stop-color="#AC9E06" stop-opacity="0"/>
</linearGradient>
<linearGradient id="paint4_linear" x1="111" y1="50" x2="50" y2="40" gradientUnits="userSpaceOnUse">
<stop stop-color="#B6A603"/>
<stop offset="1" stop-color="#C7B604" stop-opacity="0"/>
</linearGradient>
</defs>
</svg>
