<svg width="72" height="72" viewBox="0 0 90 90" fill="none" xmlns="http://www.w3.org/2000/svg">
  <path d="M45 90C69.8528 90 90 69.8528 90 45C90 37.5669 88.1978 30.5547 85.0065 24.3765C84.8017 23.98 84.2116 24.0403 84.0532 24.4575C81.9943 29.8825 76.788 33.6791 70.9769 33.9806C70.6167 33.9993 70.3731 34.3708 70.5082 34.7053C71.7928 37.8851 72.5 41.3599 72.5 45C72.5 60.1878 60.1878 72.5 45 72.5C41.5509 72.5 38.25 71.865 35.208 70.7056C34.8708 70.577 34.5041 70.8281 34.4926 71.1889C34.3087 77.0034 30.6071 82.2841 25.2261 84.4488C24.8121 84.6153 24.7634 85.2065 25.1639 85.4034C31.1479 88.3468 37.8809 90 45 90Z" fill="#00BF72"/>
  <path d="M54.792 19.2944C55.1292 19.423 55.4959 19.1718 55.5074 18.8111C55.6913 12.9966 59.3929 7.71585 64.7739 5.55123C65.1879 5.38467 65.2366 4.79354 64.8361 4.59656C58.8521 1.65317 52.1191 0 45 0C20.1472 0 0 20.1472 0 45C0 52.4331 1.80222 59.4453 4.99352 65.6235C5.19835 66.02 5.78841 65.9597 5.94678 65.5425C8.00568 60.1175 13.212 56.3209 19.0231 56.0194C19.3833 56.0007 19.6269 55.6292 19.4918 55.2947C18.2072 52.1149 17.5 48.6401 17.5 45C17.5 29.8122 29.8122 17.5 45 17.5C48.4491 17.5 51.75 18.135 54.792 19.2944Z" fill="#00BF72"/>
  <path d="M65 45C65 56.0457 56.0457 65 45 65C33.9543 65 25 56.0457 25 45C25 33.9543 33.9543 25 45 25C56.0457 25 65 33.9543 65 45Z" fill="#00BF72"/>
  <path d="M28.5 70.75C28.5 75.5825 24.5825 79.5 19.75 79.5C14.9175 79.5 11 75.5825 11 70.75C11 65.9175 14.9175 62 19.75 62C24.5825 62 28.5 65.9175 28.5 70.75Z" fill="#00BF72"/>
  <path d="M70.25 28C75.0825 28 79 24.0825 79 19.25C79 14.4175 75.0825 10.5 70.25 10.5C65.4175 10.5 61.5 14.4175 61.5 19.25C61.5 24.0825 65.4175 28 70.25 28Z" fill="#00BF72"/>
</svg>

