<svg width="120" height="120" viewBox="0 0 120 120" fill="none" xmlns="http://www.w3.org/2000/svg">
<g clip-path="url(#clip0)">
<path d="M119.059 60C119.059 93.1372 93.1372 120 60 120C50.0976 120 40.7555 117.601 32.5231 113.353C23.8085 108.856 17.2788 101.11 11.7028 93.1198C7.51882 87.124 3.46071 81.5047 1.68635 74.1845C0.584235 69.6367 0 64.8866 0 60C0 26.8628 26.8628 0 60 0C85.7047 0.167765 119.059 26.8628 119.059 60Z" fill="url(#paint0_linear)"/>
<path d="M37.0352 60.8741L33.0931 56.932C25.8082 49.6471 13.9971 49.6471 6.71217 56.932C2.11193 61.5322 0.203696 68.2059 1.77287 74.5195C5.58534 89.8598 15.3006 102.867 28.3689 110.99C35.1623 115.213 43.963 114.233 49.6192 108.577C52.5494 105.646 56.5239 104 60.6682 104C65.8044 104 69.9682 99.8362 69.9682 94.7C69.9682 86.3751 63.2195 79.6261 54.8943 79.6261H51.2371C45.1705 79.6261 40.2524 74.708 40.2524 68.6414C40.2524 65.728 39.0952 62.9341 37.0352 60.8741Z" fill="url(#paint1_linear)"/>
<path d="M97.8144 54.8235C110.415 54.8235 118.376 41.2108 112.125 30.2711C101.791 12.1878 82.3195 0 59.9998 0C59.8115 0 59.6238 0.000941176 59.436 0.00258824C52.5845 0.0661177 47.0586 5.62753 47.0586 12.4795C47.0586 15.7882 48.3729 18.9614 50.7125 21.3009L61.8522 32.4407C64.8925 35.4809 69.8217 35.4809 72.8619 32.4407C75.9021 29.4005 80.8313 29.4005 83.8715 32.4407C88.3664 36.9355 90.8915 43.032 90.8915 49.3887C90.8915 52.3901 93.3247 54.8233 96.3261 54.8233H97.8144V54.8235Z" fill="url(#paint2_linear)"/>
<path d="M56 119.84C86.8697 117.577 111.216 91.6501 111.216 60C111.216 28.3499 86.8697 2.42343 56 0.160407C57.4503 0.0540891 58.9149 0 60.3922 0C93.3127 0 120 26.8629 120 60C120 93.1371 93.3127 120 60.3922 120C58.9149 120 57.4503 119.946 56 119.84Z" fill="#15213D"/>
<path d="M56.7622 0.317647C81.6729 2.86654 100.333 20.6667 106.667 37.3333C110 47.6667 110.26 49.1667 110.26 49.1667C110.26 49.1667 110.646 48.8333 112.667 45.6667C115.845 40.0533 114.034 33.6116 112.125 30.2711C101.791 12.1878 82.3196 0 59.9999 0C59.7716 0 59.5446 0.00423529 59.317 0.00682353C58.4401 0.0230588 57.586 0.130118 56.7622 0.317647Z" fill="url(#paint3_linear)"/>
<path d="M80.6807 74.147C85.7478 74.147 89.8555 70.0393 89.8555 64.9722C89.8555 59.9051 85.7478 55.7974 80.6807 55.7974C75.6136 55.7974 71.5059 59.9051 71.5059 64.9722C71.5059 70.0393 75.6136 74.147 80.6807 74.147Z" fill="url(#paint4_linear)"/>
<path d="M26.8136 43.4216C30.99 43.4216 34.3757 40.0359 34.3757 35.8595C34.3757 31.683 30.99 28.2974 26.8136 28.2974C22.6371 28.2974 19.2515 31.683 19.2515 35.8595C19.2515 40.0359 22.6371 43.4216 26.8136 43.4216Z" fill="url(#paint5_linear)"/>
<path d="M117.743 76.3529H111.324C104.299 76.3529 97.5619 79.1437 92.5943 84.1113L86.1802 90.5254C83.6391 93.0666 85.4391 97.4117 89.0329 97.4117C91.3212 97.4117 93.1762 99.2668 93.1762 101.555C93.1762 105.128 97.4111 107.042 100.07 104.655C108.393 97.1821 114.616 87.4179 117.743 76.3529Z" fill="url(#paint6_linear)"/>
<path d="M111.325 76.3529C110.3 76.3529 109.896 76.4479 108.937 76.4479C106.128 86.2688 100.216 95.1416 93.2246 102.205C93.6994 105.351 97.5773 106.893 100.07 104.655C108.393 97.1824 114.616 87.4181 117.744 76.3532L111.325 76.3529Z" fill="url(#paint7_linear)"/>
</g>
<defs>
<linearGradient id="paint0_linear" x1="-2.80141" y1="60" x2="117.691" y2="60" gradientUnits="userSpaceOnUse">
<stop stop-color="#1A2C52"/>
<stop offset="0.6075" stop-color="#0C3C81"/>
<stop offset="1" stop-color="#22253B"/>
</linearGradient>
<linearGradient id="paint1_linear" x1="-0.38501" y1="82.5327" x2="69.1783" y2="82.5327" gradientUnits="userSpaceOnUse">
<stop stop-color="#04FB97"/>
<stop offset="0.593" stop-color="#05DD86"/>
<stop offset="1" stop-color="#00BF72"/>
</linearGradient>
<linearGradient id="paint2_linear" x1="45.4763" y1="27.4118" x2="113.53" y2="27.4118" gradientUnits="userSpaceOnUse">
<stop stop-color="#7CC6A0"/>
<stop offset="0.593" stop-color="#05DD86"/>
<stop offset="1" stop-color="#00BF72"/>
</linearGradient>
<linearGradient id="paint3_linear" x1="52.9368" y1="27.4118" x2="112.341" y2="27.4118" gradientUnits="userSpaceOnUse">
<stop stop-color="#04DB85"/>
<stop offset="1" stop-color="#06AB69"/>
</linearGradient>
<linearGradient id="paint4_linear" x1="71.0741" y1="64.9722" x2="89.6446" y2="64.9722" gradientUnits="userSpaceOnUse">
<stop stop-color="#C6FFE8"/>
<stop offset="0.593" stop-color="#05DD86"/>
<stop offset="1" stop-color="#00BF72"/>
</linearGradient>
<linearGradient id="paint5_linear" x1="18.8956" y1="35.8595" x2="34.2019" y2="35.8595" gradientUnits="userSpaceOnUse">
<stop stop-color="#C6FFE8"/>
<stop offset="0.593" stop-color="#05DD86"/>
<stop offset="1" stop-color="#00BF72"/>
</linearGradient>
<linearGradient id="paint6_linear" x1="84.22" y1="91.0333" x2="117.367" y2="91.0333" gradientUnits="userSpaceOnUse">
<stop stop-color="#C6FFE8"/>
<stop offset="0.593" stop-color="#05DD86"/>
<stop offset="1" stop-color="#00BF72"/>
</linearGradient>
<linearGradient id="paint7_linear" x1="91.5972" y1="92.7225" x2="116.868" y2="92.7225" gradientUnits="userSpaceOnUse">
<stop stop-color="#04DB85"/>
<stop offset="1" stop-color="#06AB69"/>
</linearGradient>
<clipPath id="clip0">
<rect width="120" height="120" fill="white"/>
</clipPath>
</defs>
</svg>
