<svg width="72" height="72" viewBox="0 0 72 72" fill="none" xmlns="http://www.w3.org/2000/svg">
<path d="M36 72C16.2 72 0 55.8 0 36C0 16.2 16.2 0 36 0C55.8 0 72 16.2 72 36C72 55.8 55.8 72 36 72Z" fill="#1E1E1E"/>
<path opacity="0.4" d="M56.9359 43.0447C58.7359 46.3447 57.5359 50.5447 54.5359 52.3447C51.2359 54.1447 47.0359 52.9447 45.2359 49.9447L30.8359 25.3447C29.0359 22.0447 30.2359 17.8447 33.5359 16.0447C36.8359 13.9447 40.7359 15.1447 42.8359 18.4447L56.9359 43.0447Z" fill="#4BDB4B"/>
<path opacity="0.65" d="M28.6454 49.9447C26.8454 53.2447 22.6454 54.4447 19.3454 52.3447C16.0454 50.5447 14.8454 46.3447 16.9454 43.0447L31.0454 18.4447C32.8454 15.1447 37.0454 13.9447 40.3454 16.0447C43.6454 17.8447 44.8454 22.0447 42.7454 25.3447L28.6454 49.9447Z" fill="#4BDB4B"/>
<path d="M43.6499 21.9C43.6499 25.8 36.7499 35.4 36.7499 35.4C36.7499 35.4 30.1499 25.8 30.1499 21.9C30.1499 18 33.1499 15 37.0499 15C40.9499 15 43.6499 18.3 43.6499 21.9Z" fill="#5FCE5F"/>
</svg>
