<svg width="28" height="28" viewBox="0 0 28 28" fill="none" xmlns="http://www.w3.org/2000/svg">
<path fill-rule="evenodd" clip-rule="evenodd" d="M0 14C0 6.2692 6.2692 0 14 0C21.7308 0 28 6.2692 28 14C28 21.7308 21.7308 28 14 28C6.2692 28 0 21.7308 0 14ZM16.7895 7.01829L16.8343 7.00202H16.8058L16.7895 7.01829ZM11.2756 7.00067C11.2756 7.00067 8.97152 6.91387 6.48576 8.72293C6.48576 8.72293 4 12.9866 4 18.2429C4 18.2429 5.37781 20.6025 9.15595 20.692C9.15595 20.692 9.70789 19.9692 10.2653 19.3332C8.14293 18.6985 7.31706 17.4292 7.31706 17.4292L8.02631 17.7899C8.16313 17.8454 8.30048 17.9019 8.43881 17.9588L8.43971 17.9592L8.43987 17.9593C10.399 18.765 12.5553 19.6519 16.2078 19.0592L16.265 19.0466C17.0718 18.8678 17.8799 18.6888 18.6867 18.3337C18.8347 18.259 18.9921 18.1843 19.1577 18.1057L19.1581 18.1055L19.1582 18.1055C19.5936 17.8988 20.0856 17.6653 20.6111 17.3343C20.6111 17.3343 19.7838 18.6036 17.5734 19.2382C18.029 19.8702 18.6691 20.5944 18.6691 20.5944C21.7659 20.5277 23.3113 18.9315 23.814 18.4122C23.9249 18.2977 23.9851 18.2356 24 18.2537C24 13.0055 21.4993 8.73378 21.4993 8.73378C19.2644 7.09966 17.176 7.02643 16.7814 7.02507L16.5292 7.27324C19.3838 8.08691 20.7657 9.35759 20.7657 9.35759C16.6241 7.318 12.1503 7.20137 8.05343 8.81244C7.40928 9.08773 7.04041 9.26809 7.04041 9.26809C7.04041 9.26809 8.41958 7.90926 11.4614 7.18374L11.2756 7.00067ZM18.8289 14.7975C18.8289 15.801 18.0437 16.6147 17.0795 16.6147C16.1153 16.6147 15.3301 15.801 15.3301 14.8056C15.3328 13.8021 16.1193 12.9911 17.0795 12.9911V12.9871C18.0477 12.9871 18.8289 13.8007 18.8289 14.7975ZM10.8158 16.6147C11.78 16.6147 12.5652 15.801 12.5652 14.7975C12.5652 13.8007 11.7854 12.9871 10.8212 12.9871L10.8158 12.9911C9.8516 12.9911 9.06641 13.8021 9.06641 14.8056C9.06641 15.801 9.8516 16.6147 10.8158 16.6147Z" fill="white"/>
</svg>
