<svg width="68" height="68" viewBox="0 0 68 68" fill="none" xmlns="http://www.w3.org/2000/svg">
<path d="M34 68C15.3 68 0 52.7 0 34C0 15.3 15.3 0 34 0C52.7 0 68 15.3 68 34C68 52.7 52.7 68 34 68Z" fill="#1E1E1E"/>
<path opacity="0.4" d="M53.7727 40.6533C55.4727 43.77 54.3393 47.7367 51.506 49.4367C48.3893 51.1367 44.4227 50.0033 42.7227 47.17L29.1227 23.9367C27.4227 20.82 28.556 16.8533 31.6727 15.1533C34.7893 13.17 38.4727 14.3033 40.456 17.42L53.7727 40.6533Z" fill="#4BDB4B"/>
<path opacity="0.65" d="M27.0538 47.17C25.3538 50.2867 21.3871 51.42 18.2704 49.4367C15.1538 47.7367 14.0204 43.77 16.0038 40.6533L29.3204 17.42C31.0204 14.3033 34.9871 13.17 38.1038 15.1533C41.2204 16.8533 42.3538 20.82 40.3704 23.9367L27.0538 47.17Z" fill="#4BDB4B"/>
<path d="M41.2251 20.6833C41.2251 24.3666 34.7084 33.4333 34.7084 33.4333C34.7084 33.4333 28.4751 24.3666 28.4751 20.6833C28.4751 17 31.3084 14.1666 34.9918 14.1666C38.6751 14.1666 41.2251 17.2833 41.2251 20.6833Z" fill="#5FCE5F"/>
</svg>
