<svg width="68" height="68" viewBox="0 0 68 68" fill="none" xmlns="http://www.w3.org/2000/svg">
<path d="M29.5293 52.2388C31.283 58.7234 37.5739 63.6735 40.7448 63.4543C40.857 63.4543 52.7964 61.2214 59.332 50.3015C64.43 41.8032 62.6865 33.6005 55.7634 33.4221C53.2756 33.6005 26.1952 39.8609 29.5191 52.2235" fill="#2845AE"/>
<path d="M55.1159 10.573C50.7613 6.86634 45.4481 4.46522 39.7884 3.64626C34.1288 2.8273 28.3529 3.62382 23.1261 5.94406C22.4651 6.22268 21.8216 6.54104 21.1991 6.89738C20.7759 7.12169 20.3477 7.3511 19.9348 7.5958L20.0367 7.62639C18.8129 8.45999 17.7304 9.48403 16.8301 10.6597C8.11767 22.1607 37.324 30.5265 52.9391 30.5571C60.117 35.7111 62.1562 16.038 55.1159 10.573Z" fill="#2845AE"/>
<path d="M24.8851 10.8074C20.8628 16.8383 7.51119 21.0849 5.31396 20.4222V20.3967C5.40063 20.2132 5.49239 20.0348 5.58926 19.8563C6.34716 18.3933 7.21638 16.9906 8.18922 15.6607C9.1572 14.3381 10.2259 13.0922 11.3857 11.9341C12.543 10.7758 13.7853 9.70567 15.1021 8.73255C15.9229 8.13099 16.7742 7.56512 17.6511 7.04512C19.0067 6.30036 20.5244 5.89951 22.071 5.87769C28.0254 5.98984 24.9157 10.7666 24.8851 10.8176" fill="#5493F7"/>
<path d="M21.5966 53.4214C21.8821 55.3178 21.5966 62.8017 21.199 63.4338C20.8676 63.4338 20.1794 63.495 18.1402 62.3633C17.0833 61.7616 16.062 61.0995 15.0814 60.3801C11.0938 57.4589 7.83759 53.6531 5.56859 49.2615C4.02027 46.2778 2.95678 43.0667 2.41804 39.7486C1.86065 36.3113 1.86065 32.8065 2.41804 29.3691C2.68991 27.6977 3.09565 26.0509 3.63136 24.4445C3.73841 24.1233 3.85057 23.8022 3.96782 23.4861C6.27721 26.5449 8.94345 29.3284 11.2171 32.4279C13.3736 35.3797 16.3457 40.1871 16.9524 41.2168C20.7096 47.5944 21.306 51.5301 21.5966 53.4214Z" fill="#5493F7"/>
<path d="M65.9951 34.5589C65.9998 38.5813 65.2439 42.5682 63.7673 46.3097C59.9999 50.3881 34.5865 40.391 34.3367 40.2788C30.865 38.7596 20.2867 34.1256 19.3334 26.8457C17.962 16.3744 39.2155 9.07412 48.5448 8.79883C49.6663 8.79883 53.0718 8.84981 55.06 10.4659C58.5 13.4662 61.2566 17.1693 63.1439 21.3255C65.0311 25.4817 66.0052 29.9943 66.0002 34.5589" fill="#5493F7"/>
<path d="M48.7943 62.9393C46.021 64.2291 42.9725 63.2911 43.7626 60.5892C45.292 55.4096 58.5468 50.1026 61.5036 49.8121C61.8656 49.7764 62.0134 50.0211 61.8554 50.3219C58.7979 55.6941 54.2655 60.0779 48.7943 62.9546" fill="#5493F7"/>
</svg>
